<?xml version="1.0" encoding="UTF-8"?>
<svg id="Calque_1" xmlns="http://www.w3.org/2000/svg" xmlns:xlink="http://www.w3.org/1999/xlink" version="1.1" viewBox="0 0 55.3 67.6">
  <!-- Generator: Adobe Illustrator 29.0.1, SVG Export Plug-In . SVG Version: 2.1.0 Build 192)  -->
  <defs>
    <style>
      .st0 {
        fill: #a7191e;
      }

      .st1, .st2 {
        fill: none;
      }

      .st3 {
        fill: #036a31;
      }

      .st4 {
        fill: #f7df1a;
      }

      .st5 {
        fill: #cd1420;
      }

      .st6 {
        fill: #1d1d1b;
      }

      .st7 {
        clip-path: url(#clippath-1);
      }

      .st8 {
        clip-path: url(#clippath-3);
      }

      .st9 {
        clip-path: url(#clippath-2);
      }

      .st10 {
        fill: #eb5d0b;
      }

      .st2 {
        clip-rule: evenodd;
      }

      .st11 {
        fill: #39287c;
      }

      .st12 {
        fill: #f9ad1a;
      }

      .st13 {
        fill: #96b522;
      }

      .st14 {
        fill: #546d94;
      }

      .st15 {
        clip-path: url(#clippath);
      }
    </style>
    <clipPath id="clippath">
      <path class="st1" d="M10.7,60.9c0,.1,0,.1-.1.3h-.4c0,0-.1,0-.3,0,0,0-.1,0-.4.1h-.7c-.2,0-.3,0-.5,0h-.4c0,0,0,0,0,.1-.2,0-.4-.1-.6-.1-.3,0-.6,0-1,0l-.2-.2c0-.1,0-.3,0-.6,0,0,0-.2,0-.3s0-.2,0-.3v-.5c0-.3,0-.5,0-.7v-.7s0-.2,0-.2h0c0,0,0-.4,0-.4,0,0,0,0,0-.2v-.3c0,0,0-6.4,0-6.4v-.6c0,0,0-.5,0-.5v-.4c0-.3,0-.6,0-.7s0-.3,0-.4v-.8c0-.3-.1-.3-.2-.5v-.2c0,0,0-.2,0-.3v-.2c.1,0,.2,0,.2,0l.3-.2c.3.2,1.6.2,1.7.4v.5c0,0-1.2.2-1.2.2,0,.1,0,.3,0,.4,0,0,0,.1,0,.2,0,.2,0,.3,0,.4l1.2.3v.4c0,0,0,.1,0,.3v.4c0,.1-1.2.1-1.3.4l1.2.6c0,0,0,.1,0,.3v6.4c0,0,0,.5,0,.5v.6c0,.1,0,.3,0,.4h0c0,.4.1.5.3.6.3,0,.3,0,.4,0,.3,0-.7,0-.3,0h.1c.3,0,.5,0,.7,0,.1,0,.1,0,.4,0,.2,0,0,0,.2,0h.3c0,0,.3,0,.3,0h.5s.2.2.2.2v.7s0,.2,0,.2v.3s0,0,0,.4Z"/>
    </clipPath>
    <clipPath id="clippath-1">
      <path class="st2" d="M13.8,33.3c.6-.2.9-.3,1.6-.2.4-.1,1.8,0,2.2.1.3,0,.6.2.9.3.2,0,.8.3.9.3h.1c.2.2.6.4.9.6.2,0,.2.2.4.3,0,0,.1,0,.2.1.1.1,0,.1.2.2,0,0,.2.2.3.3.2.2.2.1.4.3h0s0,0,0,0c.1,0,.1,0,.2.2,0,0,.1.1.2.2.1.1.3.2.4.4,0,.1,0,0,0,.1.2,0,.5.7.6,1,.1.2.2.7.4.8,0,.3.1,0,.2.9.2,1.8.2,2.1-.4,3.9,0,.3-.2.6-.3.9-.1.3-.2.5-.4.8,0,.2-.4.6-.4.7l-.3.3s0,0,0,0c0,.1,0,.1-.1.2-.1,0,0,0-.1.2-.2,0-.4.4-.7.5,0,0,0,0,0,0,0,0,0,0,0,0,0,0,0,0,0,0,0,0,0,0,0,0,0,0,0,0,0,0h0c0,.1-.1.2-.2.2,0,0,0,0-.1,0-.1,0,0,0-.1,0,0,0,0,0-.1,0,0,.1-.2.2-.3.2,0,0,0,0-.1,0,0,0,0,0,0,0,0,0,0,0,0,0,0,0-.5.2-.7.3-.3.1-.5.2-.8.3-.5.2-.9.5-1.5.6-1.2.3-2.2.6-3.6.4h-.2c0-.2,0-.4.2-.5h0c0-.1.2-.4.3-.5.1-.1.4-.2.6-.2.3,0,.6,0,.9,0,.4,0,1.4-.2,1.7-.3.1,0,.2-.1.3-.2.1,0,.3,0,.4-.1.7-.2,2-1.2,2.4-1.2,0-.1,0,0,.2-.2,0,0,0-.1.2-.2.1-.1.3-.2.4-.3,0,0,0,0,.1-.1.1-.1,0,0,.1-.2h.1c0-.2,0-.1.1-.2,0,0,0,0,.1-.1,0-.1.1-.2.2-.3,0,0,.4-.9.4-1.1,0-.2.1-.4.2-.6l.2-.5c.7-2.1.2-2.4,0-3.1,0-.3,0-.4-.2-.6-.2-.3,0-.5-.5-1.1-.3-.5-.2-.5-.8-1.1l-.6-.6c-.1,0,0,0-.1,0,0,0,0,0,0,0-.1,0,0,0-.2,0,0,0,0,0,0,0-.1-.1-.3-.3-.4-.3,0-.1,0,0-.2-.1-.4-.2-.5-.4-1.4-.7-1.3-.5-2.3-.4-3.7-.1-.3,0-.6.1-.8.2-.4.2-.5.4-.7.4,0,.2-.6.5-.8.8-.1.2-.2.3-.4.4-.1.2-.2.3-.4.4-.4.4-1,1.8-1.1,2.5,0,.4-.1,1.2-.1,1.7,0,.4,0,1.3.3,1.5l.4.7c0,.1.1.2.2.3,0,.1.1.2.2.3l.7.8c0,0,0,0,.2.1,0,0,0,0,0,0,0,0,0,0,0,0,0,0,0,0,0,0,0,0,0,0,0,0,.2,0,.3.2.4.2h0c.2.3,1.1.7,1.4.8h.5c0,.1,0,0,0,.1.2,0,1.9.1,2.8-.4.1,0,.6-.4.7-.4.2,0,.2-.1.3-.1,0,0,0,0,0,0l.2-.2c.1-.1.1-.2.3-.2,0,0,0,0,0,0,0-.2.2-.3.4-.5.1-.2.3-.2.3-.4,0,0,0,0,0,0h0s0,0,0,0c0-.1.3-.7.4-.8.1-.2.2-.7.3-1,0-.3,0-.8,0-1.2,0-.3-.2-.9-.2-1-.2-.2-.2-.3-.3-.5,0,0-.3-.4-.3-.4,0-.2-.2-.3-.2-.4-.1,0,0,0-.1,0,0,0,0,0-.1-.1-.2-.2-.4-.5-.7-.6,0-.1-.5-.3-.6-.3-.4-.2-1.6-.4-2.1-.4-.2,0-.3,0-.5,0,0,0-1,.5-1.1.5,0,.1-.4.3-.5.5-.5.6-.9,1.1-1,1.9,0,.2,0,.6,0,.9,0,.6.2.8.5,1.5l.4.6c0,0,0,0,0,0,0,0,0,0,0,0l.4.4c.2,0,.4.2.7.2.2,0,.6.1.8.1.7,0,1-.1,1.4-.4.2-.1.2-.2.4-.4.1-.2.2-.3.3-.4,0-.2.2-.4.2-.7,0-.3-.1-.6,0-.9h0c0-.4-.3-.8-.4-.9l-.2-.2s0,0,0,0c-.4,0-.8-.3-1.3-.2-.7,0-1.2.5-1.1,1.2,0,.4.3.7.7.8.4,0,.4,0,.5-.3h0c-.1-.2-.1-.1-.3-.2-.4-.1-.3-.8.2-.8.3,0,.7,0,.9,0h0c0,.1,0,.2,0,.2,0,0,0,0,0,0,.2,0,.1.1.4.3,0,0,0,0,0,0,0,0,0,0,0,0,0,0,0,0,0,0,0,0,0,0,0,.1,0,.3,0,.4,0,.7-.1,0-.2.3-.4.6h0c0,0,0,.1,0,.1h0c-.1,0,0,0-.2.1,0,0,0,0-.1,0-.1,0-.2,0-.2.2-.3,0-.6,0-.9,0-.2,0-.6-.2-.7-.1,0,0,0,0,0,0h0c-.6-.4-.4-.4-.6-.5-.2-.5-.6-.9-.5-1.8,0-.3.5-1.5.7-1.5,0-.2.2-.4.4-.4,0,0,.3-.1.5-.2.5-.3,1.4-.2,1.8,0,.7,0,.8.3,1.2.5.2,0,.2.1.3.2,0,0,0,0,0,0,0,0,0,0,0,0,.2.2.1,0,.1.2.1,0,0,0,.1,0,0,0,0,0,0,0,0,0,0,0,0,0,0,0,0,0,0,0,0,.2.1.1.2.3,0,0,.1.2.2.3,0,0,0,0,.1.1.2.8.4.1.2,2,0,.9-.7,1.2-.8,1.5,0,0,0,0,0,0,0,0,0,0,0,0-.1.2-.7.9-.9.9,0,0,0,0-.2.2,0,0,0,0-.1,0-.1,0,0,0,0,0h-.2c-.1.2-.7.3-.9.4-.9.2-1.3,0-2.1-.2l-.6-.3c-.1,0,0,0-.2,0,0,0-.1-.1-.2-.2-.1-.1,0-.1-.2-.2,0,0,0,0,0,0-.1-.2-.5-.4-.7-.6,0,0,0-.2,0-.3-.1-.3-.2-.2-.3-.8,0,0-.2-.3-.2-.4-.4-.8-.2-.6-.2-1.7-.1-1.6.4-1.6.4-2h0c0-.1,0,0,.1-.2,0,0,0-.1.1-.2,0,0,0,0,.1-.1h.1c0-.1,0-.1,0-.1,0-.1,0-.2.1-.2,0,0,0,0,0-.1.1-.1,0,0,.1,0,0,0,0,0,.1-.2.6-.6.5-.4,1.1-.8h.2c.1-.3.8-.4,1.1-.5,1.1-.2,1.8-.2,2.8.2.4.1.8.3,1.1.5.2.1.3.2.5.4l.3.2s0,0,0,0c0,0,0,0,0,0,.2,0,.4.3.5.4,0,0,.1,0,.1.1.2.2.7,1.1.9,1.3.3.5.3.9.5,1.4.2.6,0,1.6-.2,2.2,0,.2,0,.3-.1.5-.1.3-.5,1.5-.9,1.6v.2c-.3.1-.5.5-.6.7l-.2.2s0,0,0,0c0,.1-.8.5-1,.5-.1.2-.4.4-.6.5-.1,0-.2.2-.3.2-.1,0-.3,0-.4.2-.2,0-.2,0-.4,0-.4.1-1.3.2-1.8.3-.3,0-.6,0-1,0-.3,0-.7-.2-.9-.2-.1-.1-.2-.2-.4-.3,0,0-.4-.2-.5-.2-.2,0-.3-.2-.5-.2l-.4-.3c-.2,0-.4-.4-.5-.5-.1-.1-.1-.2-.3-.2,0,0-.2-.1-.3-.3h0s0,0,0,0c0,0,0,0,0,0l-.4-.4c0-.1,0,0,0-.1,0,0,0,0,0-.1,0,0-.1-.2-.1-.3h0c0-.1,0,0,0-.1,0,0,0,0,0,0,0,0,0,0,0,0h0c0-.1,0-.1,0,0-.1-.2-.2-.3-.3-.6v-.2c-.1-.2-.2-.4-.2-.6-.3-.8-.2-2.2,0-3.1,0-.1,0-.3,0-.4.1-.6.3-1.2.5-1.7,0-.1.2-.5.3-.6,0,0,0,0,0,0,0,0,0,0,0,0l.3-.4c.2-.2.2-.2.4-.4,0,0,.1,0,.2-.2.1,0,0-.1.2-.2,0-.2.2-.3.4-.5,0,0,.1-.1.2-.2.2-.2.2,0,.2-.2.2,0,.2-.3.5-.4,0,0,0,0,0,0,0,0,0,0,0,0,0,0,.1,0,.3-.1.2-.2,1-.4,1.3-.5Z"/>
    </clipPath>
    <clipPath id="clippath-2">
      <path class="st2" d="M36.3,49.7c-.6.1-.8.2-1.5.2-.4.1-1.7,0-2.1-.1-.3,0-.6-.2-.9-.3-.2,0-.8-.3-.8-.3h-.1c-.1-.2-.6-.3-.8-.6-.2,0-.2-.1-.4-.3,0,0,0,0-.2-.1-.1-.1,0-.1-.2-.2,0,0-.2-.2-.3-.3-.2-.1-.2-.1-.3-.3h0s0,0,0,0c-.1,0-.1,0-.2-.2,0,0-.1-.1-.2-.2-.1-.1-.2-.2-.4-.4,0-.1,0,0,0-.1-.2,0-.5-.7-.6-.9-.1-.1-.2-.6-.4-.8,0-.3-.1,0-.2-.8-.2-1.7-.2-2,.3-3.7,0-.3.2-.6.3-.8.1-.3.2-.5.3-.8,0-.2.4-.6.4-.7l.3-.3s0,0,0,0c0,0,0-.1.1-.2.1,0,0,0,.1-.2.2,0,.4-.4.7-.5,0,0,0,0,0,0,0,0,0,0,0,0,0,0,0,0,0,0,0,0,0,0,0,0,0,0,0,0,0,0h0c0-.1.1-.2.2-.2,0,0,0,0,.1,0,0,0,0,0,.1,0,0,0,0,0,.1,0,0-.1.2-.2.3-.2,0,0,0,0,.1,0,0,0,0,0,0,0,0,0,0,0,0,0,0,0,.5-.2.6-.3.3-.1.5-.2.7-.3.5-.2.8-.4,1.4-.6,1.1-.3,2.1-.6,3.4-.4h.1c0,.2,0,.3-.1.4h0c0,.1-.2.4-.3.5-.1.1-.3.2-.6.2-.3,0-.5,0-.9,0-.3,0-1.3.2-1.6.3-.1,0-.2.1-.3.2-.1,0-.3,0-.4.1-.7.2-1.9,1.1-2.3,1.2,0,.1,0,0-.2.2,0,0,0,0-.2.2-.1.1-.2.2-.4.3,0,0,0,0-.1.1,0,0,0,0-.1.2h-.1c0,.2,0,.1,0,.2,0,0,0,0,0,.1,0,.1-.1.2-.2.3,0,0-.4.8-.4,1,0,.2-.1.4-.2.5l-.2.5c-.7,2-.2,2.3,0,3,0,.3,0,.4.2.6.2.3,0,.5.4,1,.3.4.2.5.7,1l.6.5c.1,0,0,0,.1,0,0,0,0,0,0,0,.1,0,0,0,.2,0,0,0,0,0,0,0,.1.1.3.3.4.3,0,.1,0,0,.1.1.3.1.5.4,1.3.7,1.3.4,2.2.3,3.5,0,.3,0,.6-.1.8-.2.4-.1.5-.4.6-.4,0-.2.6-.5.8-.7.1-.2.2-.2.4-.4.1-.1.2-.3.4-.4.4-.3.9-1.7,1-2.4,0-.4.1-1.1.1-1.6,0-.4,0-1.3-.3-1.4l-.4-.6c0-.1-.1-.2-.2-.3,0-.1,0-.2-.2-.3l-.7-.8c0,0,0,0-.1-.1,0,0,0,0,0,0,0,0,0,0,0,0,0,0,0,0,0,0,0,0,0,0,0,0-.2,0-.3-.2-.4-.2h0c-.2-.3-1-.7-1.3-.7h-.5c0-.1,0,0,0-.1-.2,0-1.8-.1-2.6.4,0,0-.6.3-.6.4-.2,0-.2,0-.2.1,0,0,0,0,0,0l-.2.2c-.1.1-.1.1-.3.2,0,0,0,0,0,0,0,.2-.2.3-.3.4-.1.1-.2.2-.3.4,0,0,0,0,0,0h0s0,0,0,0c0,.1-.3.6-.3.8,0,.2-.2.7-.3.9,0,.3,0,.7,0,1.1,0,.3.2.9.2,1,.1.1.2.3.3.5,0,0,.3.4.3.4,0,.2.1.2.2.4,0,0,0,0,.1,0,0,0,0,0,.1.1.2.2.4.4.7.5,0,.1.4.3.6.3.4.2,1.5.4,2,.4.2,0,.3,0,.5,0,0,0,.9-.5,1.1-.5,0-.1.4-.3.5-.4.5-.5.8-1,1-1.8,0-.2,0-.6,0-.9,0-.6-.2-.8-.5-1.4l-.3-.6c0,0,0,0,0,0,0,0,0,0,0,0l-.4-.4c-.2,0-.4-.2-.7-.2-.2,0-.6,0-.8,0-.6,0-.9.1-1.4.4-.2.1-.2.2-.3.4-.1.2-.2.3-.3.4,0,.2-.2.4-.2.7,0,.3.1.6,0,.8h0c0,.4.3.8.4.9l.2.2s0,0,0,0c.4,0,.8.2,1.3.2.6,0,1.2-.5,1.1-1.1,0-.4-.3-.7-.7-.8-.3,0-.4,0-.5.3h0c.1.2.1.1.3.2.4.1.3.7-.1.8-.3,0-.6,0-.9,0h0c0-.1,0-.2,0-.2,0,0,0,0,0,0-.2,0-.1-.1-.3-.3,0,0,0,0,0,0,0,0,0,0,0,0,0,0,0,0,0,0,0,0,0,0,0-.1,0-.3,0-.4,0-.7.1,0,.2-.3.4-.6h0c0,0,0-.1,0-.1h0c.1,0,0,0,.2-.1,0,0,0,0,.1,0,0,0,.2,0,.2-.2.3,0,.5,0,.8,0,.2,0,.6.1.7.1,0,0,0,0,0,0h0c.5.3.4.4.6.5.2.5.6.8.5,1.7,0,.3-.5,1.4-.7,1.4,0,.2-.2.3-.4.4,0,0-.3.1-.5.2-.5.3-1.3.2-1.7,0-.7,0-.8-.3-1.1-.5-.2,0-.2-.1-.3-.2,0,0,0,0,0,0,0,0,0,0,0,0-.2-.2-.1,0-.1-.2,0,0,0,0-.1,0,0,0,0,0,0,0,0,0,0,0,0,0,0,0,0,0,0,0,0-.2,0-.1-.2-.2,0,0-.1-.2-.2-.3,0,0,0,0-.1-.1-.2-.8-.4-.1-.2-1.9,0-.9.7-1.2.7-1.4,0,0,0,0,0,0,0,0,0,0,0,0,0-.2.7-.8.9-.9,0,0,0,0,.2-.2,0,0,0,0,.1,0,.1,0,0,0,0,0h.2c.1-.2.7-.3.9-.4.8-.2,1.2,0,2,.2l.6.3c.1,0,0,0,.2,0,0,0,.1.1.2.2.1.1,0,.1.2.2,0,0,0,0,0,0,.1.1.5.4.6.6,0,0,0,.2,0,.2.1.2.2.2.3.7,0,0,.1.3.2.4.3.7.2.6.2,1.6.1,1.5-.4,1.5-.4,1.9h0c0,.1,0,0-.1.2,0,0,0,.1-.1.2,0,0,0,0-.1,0h-.1c0,0,0,.1,0,.1,0,0,0,.1-.1.2,0,0,0,0,0,.1-.1,0,0,0-.1,0,0,0,0,0-.1.2-.6.5-.5.4-1.1.8h-.2c-.1.3-.7.4-1,.4-1,.1-1.7.2-2.7-.2-.4-.1-.8-.3-1.1-.5-.1-.1-.3-.2-.4-.3l-.3-.2s0,0,0,0c0,0,0,0,0,0-.2,0-.4-.3-.5-.4,0,0-.1,0-.1-.1-.2-.2-.7-1-.8-1.3-.3-.5-.3-.8-.4-1.3-.2-.5,0-1.5.2-2.1,0-.2,0-.3.1-.5.1-.3.5-1.4.8-1.5v-.2c.3-.1.5-.4.6-.6l.2-.2s0,0,0,0c0,0,.7-.5.9-.5.1-.2.4-.4.6-.5,0,0,.2-.1.3-.2.1,0,.3,0,.4-.2.2,0,.2,0,.3,0,.4-.1,1.3-.2,1.7-.3.3,0,.6,0,.9,0,.3,0,.6.2.8.2.1.1.2.2.4.2,0,0,.4.1.5.2.2,0,.3.2.5.2l.3.3c.2,0,.4.3.5.5.1,0,.1.1.2.2,0,0,.2.1.2.2h0s0,0,0,0c0,0,0,0,0,0l.4.3c0,.1,0,0,0,.1,0,0,0,0,0,0,0,0,.1.2.1.3h0c0,0,0,0,0,.1,0,0,0,0,0,0,0,0,0,0,0,0h0c0,0,0,.1,0,0,.1.2.2.3.3.6v.2c.1.2.2.4.2.5.3.8.2,2,0,2.9,0,.1,0,.2,0,.4-.1.5-.2,1.1-.5,1.6,0,.1-.2.4-.2.5,0,0,0,0,0,0,0,0,0,0,0,0l-.3.4c-.2.2-.2.2-.3.3,0,0-.1,0-.2.1,0,0,0,0-.2.2,0,.2-.2.3-.4.4,0,0-.1.1-.2.2-.2.1-.1,0-.2.2-.2,0-.2.3-.4.3,0,0,0,0,0,0,0,0,0,0,0,0,0,0-.1,0-.2,0-.1.2-.9.4-1.3.4Z"/>
    </clipPath>
    <clipPath id="clippath-3">
      <path class="st1" d="M50.1,33.7s0,.1.1.3v.4c-.3.3-.4.3-.4.4-.1,0-.2.1-.2.2v.4c0,0-.3,0-.3,0l-.3.4c0,0-.1,0-.5.5,0,0-.2,0-.3,0s-.1,0-.2,0c-.1,0-.2,0-.3,0s-.1,0-.2,0c-.1,0-.3,0-.4.1h-.3c-.1.1-.1.1-.3.2h-.2s-.4.1-.4.1c0,0-.1,0-.2,0,0,0,0,0-.1,0-.2-.2-.1-.1-.2-.2-.2,0-.2-.1-.3-.2v-.3c-.3-.3-.4-.3-.4-.3l-.5-.3v-.2c-.1,0-.6-7.1-.6-7.1,0-.1,0-.2,0-.4.1-.2.1,6.4.1,5.9,0,0,0,0,0-.6v-8c0-.1,0-.3,0-.3,0-.2,0-.4,0-.5,0-.6,0-.8,0-1v-.8c-.1,0-.2-.2-.2-.2,0-.1,0-.3,0-.4s0-.2.1-.3c.2-.1.3-.2.4-.4.3-.3.7-.7.8-1l.3-.3c0,0,0,0,.1-.2.1,0,.2,0,.3-.1.4,0,1.1,0,1.5.1h0c.1,0,.3,0,.3-.1,0,0,0,0,0-.1.1,0,.2,0,.3,0h.2c0,.1,0,.3,0,.3l.3.3h.1c0,.1,0,.1.3.4,0,0,0,.1,0,.2,0,0,.1,0,.3.3.1.2.2.2.4.2.2.1.3.2.6.3,0,.1.1.2.2.3,0,0,0,.2-.2.9v.3c0,.2,0,.3,0,.4h-.3c0,0-.2,0-.2,0h-.2c-.2-.1-.3-.1-.4-.1s-.2,0-.2,0c-.1,0-.2,0-.3,0h-.3c0-.1-.2-.3-.2-.3,0,0,0-.3.1-.4,0-.2,0-.4,0-.5s0-.3,0-.5l-.3-.2c-.3,0-.4,0-.5-.1h-.3s-.1.1-.1.1c0,0-.1,0-.2,0,0,0-.5,0-.6.1-.1.1-.3.2-.5.4,0,.2,0,.5,0,.7s0,.2,0,.3v.3c0,0,0,.1,0,.2,0,0,0,.2,0,.3,0,.1,0,.2,0,.3,0,.2,0,.2-.1.4h0c0,.1,0,.3,0,.3v.3h0c0,.1-.1.2-.2.3,0,.2,0,7.2,0,7.8,0,0,0,.1.1.5,0,.1,0,.3-.1.4,0,.1,0,.2,0,.3,0,0,0,.1.1.3,0,0,0,.2.1.2.3.1.3.2.6.2,0,0,.1,0,.2,0h.2c0,0,.2-.1.3-.1s.1,0,.2,0c0,0,.2,0,.3,0h.3c0,.1.2,0,.2,0h.2c0,0,.1,0,.2-.1,0,0,0-.2,0-.2s0-.1,0-.2v-1.2c-.1,0-.1,0-.1,0h.1c0-.2.2-.2.4-.2,0,0,0,0,.1,0s.1,0,.2,0c0,0,.2,0,.3,0,0,0,.1,0,.2,0,.1,0,.2,0,.3,0h.2c.2.2.2.2.3.3v.2c-.3.4-.3.5-.3.6Z"/>
    </clipPath>
  </defs>
  <g>
    <g>
      <path class="st6" d="M12.6,16.6c-.1,0-.2.1-.3.1s-.2,0-.2,0c0,0-.1,0-.2,0h-.4c-.2,0-.3,0-.4,0h-.4c-.1,0-.2,0-.2,0,0,0-.1,0-.2,0h0s-.5,0-.5,0h-.6c0,.1-.6.1-.6.1,0,0,0,0-.2,0s-.2,0-.4,0-.3,0-.6,0c0,0-.1,0-.2,0s0,0-.1,0c0,0-.1,0-.1,0-.2,0-.2,0-.3,0,0,0-.1,0-.2,0h-.3c0,0-.1,0-.2,0h-.3c0,0,0-.2,0-.2v-.3s0-.3,0-.3c.2-.7.2-2,.2-2.2s0-.3,0-.5c0,0,.1-.2.1-.3s0-.2,0-.3v-1.3c0-.2,0-.3,0-.5,0-.3,0-.3,0-.5,0-.2,0-.3,0-.5s0-.4,0-.7v-.3s0-.3,0-.3v-.5s0,0-.1-.1v-.3s.1-.2.1-.2v-.9s0-.3,0-.3c0,0,0,0,0-.1,0,0,0-.3,0-.4,0-.1,0-.2,0-.3s0-.2.2-.4c0,0,.1,0,.7-.1.2,0,.3,0,.3,0h.3c.4.1.5.1.6.1.3,0,.4,0,.5,0,.2,0,.4,0,.5-.1.2,0,.4,0,.5,0h.2c.1,0,.3,0,.4,0s.3,0,.4,0c0,0,.1,0,.2,0s.2,0,.3,0c0,0,.2,0,.3.1h.3c0,0,.1,0,.1,0,.2.1.5.2.8.4,0,0,0,0,0,.1l-.4.5h-.2c-.5,0-.6,0-.9-.1h0c-.1,0-.1,0-.6-.1h-.1c-.2,0-.3,0-.5,0h-.2c0,0-.1,0-.2,0-.1,0-.2,0-.7,0h-.2s-.2,0-.2,0c0,0,0,0-.3.1h-.2c-.1,0-.2,0-.2.2,0,.3,0,.4,0,.7,0,.3,0,.4,0,.5s0,.3,0,.6v.3s0,.1,0,.2c0,0,0,.2,0,.2s0,.2,0,.3c.1.1.1.2.1.2v.2c0,.1-.1.2-.1.3s0,.2,0,.3c0,.1.1.1.1.3h0l.3.3h.4c0,0,.1,0,.2,0h.2c.2,0,.2,0,.4.2v.2c.1,0,0,.2,0,.2v.4s-.1.5-.1.5v.5s0,.2,0,.2h0c-.2.5-.3.5-.3.6h-.2s0,0,0,0h-.3s0,0,0,0h-.2c-.2,0-.2,0-.3.1,0,0,0,0-.1,0l-.2.4v1.4h.2c0,.1,0,.2,0,.2h.4c0,0,.2.1.4.2h0c0,0,.3,0,.4,0s.2,0,.3-.1c.3,0,.3,0,.4-.2h.4c0,0,.2,0,.7.1l1.4-.2c.2.1.3.2.5.3v.3c0,0,0,.1,0,.3Z"/>
      <path class="st6" d="M20.9,6.5c0,.2,0,.3,0,.6v.2s0,.2,0,.2c0,0-.2,0-.2,0h-.3c-.4-.1-.4,0-.4,0-.2,0-.3,0-.5.1-.2,0-.2-.1-.3-.1h.5c0,.1-.3.3-.3.3h0s-.2.3-.2.3v.2s-.2.3-.2.3c0,.2,0,.4,0,.6,0,.1,0,.2,0,.4,0,.1,0,.3,0,.4,0,.2,0,.4,0,.5v1c0,.5,0,.9,0,1.4v.3c0,0,0,.5,0,.5,0,0,0,.1,0,.2,0,0,0,.2,0,.2,0,0,0,.2,0,.3,0,.3,0,.6,0,1l-1.4.3c-.1,0-.1,0-.2,0,0,0-.1,0-.2-.1,0-.2,0-.3,0-.6v-.5s0,0,0,0c0,0,0-.2,0-.3,0,0,0,0,0-.1v-.4c0,0,0-.2,0-.2,0-.1,0-.2,0-.3,0,0,0-.3,0-.9v-.3c.1-.1,0-.2,0-.3v-.3s0-.2,0-.2c0-.1,0-.3,0-.4,0,0,0-.2,0-.3,0-.4,0-.9,0-1.1,0-.1,0-.4,0-.5s0,0,0-.2c0,0,0-.2,0-.3v-.2c0,0,0-.1,0-.1h0c-.2-.4-.3-.4-.4-.5-.3,0-.5,0-.6,0h-.7c0,.1,0,0,0,0,0,0,0,0-.2.1h-.3s0,0-.1,0l-.4-.2c0,0,0-.1-.2-.2,0,0,0-.1,0-.2,0,0,0-.2,0-.3h0c0-.1,0-1.1,0-1.1,0,0-.1-.2-.1-.2l.3-.5h.7c0-.1.2,0,.2,0,.2.1.3.1.7.1s.1,0,.2,0c.3,0,.5,0,.7,0s.2,0,.2,0h.5c0,0,.2,0,.2,0h.7s.2,0,.2,0c0,0,.2-.1.2-.1.1,0,.4,0,.6-.1.1,0,.2,0,.4,0,0,0,.1,0,.2,0,.2,0,.3,0,.4-.2.1,0,.2,0,.2.2,0,0,0,.2,0,.4,0,0,0,.1,0,.2-.1.9-.1.9,0,1Z"/>
      <path class="st6" d="M29.7,15.1l-.2.3h-.8s-.4,0-.4,0l-.2-.2v-.3s0-.5,0-.5v-.8c0-.3,0-.6,0-.9v-.6c0-.3,0-.6,0-.8,0,0,0,0-.2-.2h-.4s0,0,0,0h-.2c-.2,0-.2,0-.3,0h-.6c-.2,0-.3,0-.5,0h-.1c-.1,0-.2,0-.3.2h-.2c-.2.1-.2.2-.3.4v.3s-.2.2-.2.2c0,.3,0,.4.1.4v.2c0,0,0,.3,0,.3v.6s0,.2,0,.2c0,0,0,.2,0,.3,0,0,0,.1-.1.2v.6s-.2.2-.2.2c0,0-.1,0-.2,0h-.9s-.5.2-.5.2h-.3s-.2-.2-.2-.2v-.3c0,0-.1,0-.1-.2v-.3c0,0,0-.6,0-.6,0-.2,0-.6.1-.9,0,0,0,0,0-.1v-.2c0,0,0-1.1,0-1.1h0c0,0,0-.5,0-.5v-1.7s0,0,0-.2v-.5s.1-.4.1-.4v-1.5s0-.7,0-.7v-.3s0-.4,0-.4v-.3c0,0,.3,0,.3,0h.2c.2.1.4.1.8,0h.3c0,0,.1,0,.1,0h.2c0,0,0,0,.2,0v.2c0,0,0,.3,0,.3v.4c0,0,0,.2,0,.2,0,.2,0,.3,0,.5,0,.3-.1.5-.2.6,0,.2,0,.2,0,.2v.4c0,0,0,.2,0,.2v.4s0,.3,0,.3l-.2.4c0,.2-.1.3-.2.6.2,0,.2.1.4.2.1,0,.1,0,.3,0,.2,0,.3,0,.3,0,.3,0,.4,0,.8,0h.1c0,0,.1,0,.1,0h.3c.1,0,.1,0,.6,0,0,0,.1,0,.2,0v-.2c.2-.2.2-.3.3-.5v-.3s0-.1,0-.1c0,0,0-.3,0-.5v-.4c0-.1,0-.2,0-.3,0-.1,0-.2,0-.3,0-.2,0-.4,0-.6l.2-.4c0-.1,0-.2,0-.6h-.1c0-.1,0-.3,0-.3l.2-.2s0,0,.1-.1c0,0,.1,0,.2,0,.1,0,.3,0,.4,0,.1,0,.2.1.2.2h0c0,.1.1.2.1.2v.3c0,.2,0,.9,0,1.2v1.1c0,0,0,0,0,.1h0c0,.1,0,.3,0,.3v.3c0,0,0,.4,0,.4h-.2s0,.1,0,.1h0s0,.8,0,.8c0,0,.1.2.1.3,0,.1,0,.2-.2.3h0c0,.3,0,.5.1.8,0,.1,0,.1-.3.3,0,0,0,0,0,.2,0,0,.1.2.2.3v.6c0,.1,0,.2.1.6,0,.1,0,.3-.1.5,0,.1,0,.2,0,.3,0,.2,0,.2.1.3,0,.2.1.3.1.4,0,0,0,0,0,0ZM23.9,12.5h-.2c0,.1,0,.1,0,.3.1.1.2.1.3.1h0c0-.1,0-.3,0-.3h0Z"/>
      <path class="st6" d="M40.2,6.6v.2c0,.2,0,.3,0,.5,0,.2-.1.4-.1.5v.3s.1.3.1.3v.3s0,.4,0,.8h0c0,.1,0,.7,0,.7v.3c0,0,0,.2,0,.2,0,0,0,.1,0,.2,0,0,0,.5,0,.7v.6c0,0,0,0,0,0,0,.2,0,.4,0,.6v.2c0,.3,0,.6-.1,1,0,.1,0,.2.1.3h0c0,.1,0,.3,0,.3v.2c-.1.1,0,.2,0,.5v.2l-.2.2h-.3s-.1.1-.1.1h-.7c-.2,0-.4-.1-.5-.1,0,0-.2,0-.3,0,0-.1,0-.2-.2-.2h0c-.2,0-.3,0-.4,0,0,0-.1,0-.2.1h-.3c0,0-.2,0-.2,0,0-.1,0-.1,0-.2h0c0,0,0-.5,0-.5,0-.1-.2-.2-.2-.4,0-.3,0-.3-.2-.6,0-.1,0-.2-.2-.6h0c0-.3,0-.4-.1-.6v-.3c-.1-.2-.1-.3-.3-.5v-.4c-.1,0-.2,0-.2,0v-.6c-.1-.1-.2-.2-.3-.3v-.4c-.1,0-.2-.4-.2-.4v-.3c-.1,0-.2-.1-.2-.1,0,0-.1-.1-.2-.2,0-.2,0-.4-.1-.7h0c0-.2-.1-.4-.2-.5,0,0,0-.2,0-.3,0-.1,0-.2-.4-.6h-.3c0,0-.1.3-.1.3,0,.3-.1.4-.1.9s0,.3,0,.5c0,0,0,.2,0,.3,0,.1,0,.3-.1.5v.3c0,.5,0,.7,0,.9v.3c0,0,0,.2,0,.2v.5s0,0,0,.3c0,0,0,.2,0,.3s0,.1,0,.3c0,0,0,.2,0,.3,0,.2,0,.3,0,.4,0,0,0,0,0,.2h0v.2c0,0,0,0,0,.2v.2c0,0,0,.1,0,.1-.1.3-.1.4-.1.6,0,0,0,.2,0,.3s0,.2,0,.4c0,0,0,.2,0,.2,0,.1,0,.2,0,.3v.2c-.1,0-.6,0-.6,0h-.2c0-.1,0-.3,0-.3v-.4c0-.1,0-.2,0-.4l.2-.2v-.3c0-1.2,0-1.2,0-1.2,0-.3,0-.7,0-.8s0-.2,0-.3c0-.1,0-.3,0-.4,0-.1,0-.3,0-.4v-.4c0-.2,0-.3,0-.4s0-.1,0-.2c0,0,0-.2,0-.2,0,0,0-.2,0-.3,0-.2,0-.3,0-.5,0-.3,0-.5,0-.7,0,0,0-.2,0-.2,0,0,0,0,0,0v-.4c0,0,.1-.8.1-.8v-.6c.1,0,0-.5,0-.5l-.2-.6s0-.1.2-.3c0,0,.2,0,.2,0,.1,0,.3,0,.6,0,.2,0,.2,0,.4,0h0c0,0,0,0,0,0h.2c.1,0,.2,0,.3,0s.3,0,.5,0c0,0,.1,0,.2,0h.3c0,.2.1.3.2.4,0,.2,0,.4,0,.6,0,.4.2.6.4.8h0c0,.1.2.2.2.2v.3c.2.5.2.5.3.6v.2s.2.3.2.3v.3c0,0,.3.3.3.3,0,.1,0,0,0,.2v.3c0,0,.2.1.2.1h0c0,.1.1.2.1.2l.3.6v.7c.1,0,.2.2.2.2l.2.2v.3c0,0,.2.1.2.1h0c0,.1.1.3.1.3v.4s.1.1.1.1v.2c.2,0,.3.1.4.2v.4c0,0,.3.2.3.2h.3c0,0,0,0,0,0l.3-.3v-1c0,0,0-.6,0-.6v-.9c.1-.4.1-.7,0-1.2h0c0-.3,0-.4,0-.5v-.3c.1,0,.2-.4.2-.4h0c0,0,0-1.3,0-1.3h0c0-.1,0-.4,0-.4,0,0,0-.2-.1-.3v-.8c0-.3,0-.5,0-.9,0,0,.1-.3.2-.4h.3c.1.2.2.2.2.2h.2c0,.2,0,.3,0,.5l-.2,1Z"/>
      <path class="st6" d="M49.8,12.1c0,.2,0,.4,0,.5s0,.3,0,.5v1.3c0,.1,0,.3,0,.6-.2.3-.3.4-.4.6h-.2c0,.2,0,.2-.3.5-.1,0-.2.2-.3.3-.2,0-.2.2-.2.3,0,0,0,.2-.1.2-.3.2-.3.2-.5.2-.2,0-.3,0-.4,0-.2,0-.6,0-.7,0-.7,0-1.4,0-2,0l-.6-.2h-.2c0-.3-.2-.5-.3-.6,0,0,0-.2-.2-.4-.2,0-.3-.2-.5-.5v-.9c0,0,0-2.1,0-2.1.1-.1.1-.2.2-.7,0,0-.2-.4-.2-.8s0-.3,0-.5v-.7c0-.4,0-.6,0-1.6s0-.7-.2-1.1c0,0,0,0-.1-.4v-.3c.3,0,.3,0,.4-.2.2,0,.5-.3.6-.6,0,0,.1,0,.2-.2.2-.2.3-.3.3-.4,0,0,.1,0,.4-.2,0,0,.1,0,.2,0,.1,0,.3,0,.7.2h.4c.2,0,.7.1,1,.1h.7c.3.1.3.2.6.3,0,.1,0,0,.1.2.1.1.3.2.4.3h0c.1.2.4.4.5.5,0,.1,0,.2.2.3,0,.2,0,.2.3.3v.3c0,.5,0,.8,0,1.3v.2c.1,0,0,.6,0,.6h0c0,.3,0,.5-.2,1,0,.1,0,.2.3.4v.2c0,.2-.1.8-.2,1.2ZM47.5,9v-.9c0-.3,0-.6,0-.8v-.2c0,0-.5-.3-.5-.3h-.2c0,0-.6.2-.6.2-.1,0-.2,0-.5,0h-.4c-.1,0-.2,0-.5.3l-.2.3c0,0,0,.2.1.3v.4c0,0,0,.4,0,.4,0,.2,0,.2-.2.5,0,0,0,0,.1.2,0,0,0,0,0,.2s0,.2.1.3v.5c0,0,0,.3,0,.3,0,.3,0,.6.3.8,0,.2,0,.3,0,.6,0,.6-.1.7-.2.8,0,.2,0,.3-.1.4,0,.2,0,1.4,0,1.6.1,0,.2.2.3.3.2.1.4.1.6.1s.4,0,.7,0c.4,0,.6,0,.7-.3v-1.6c0-.8,0-1.3,0-2,0-.2,0-.3,0-.6,0-.1,0-.3,0-.4,0-.2,0-.3,0-.4,0-.2.1-.3.1-.6v-.2Z"/>
      <path class="st6" d="M17.6,30.1h-.2c-.1,0-.2,0-.3,0s-.3,0-.4,0c-.2,0-.4,0-.6-.2,0-.1,0-.3,0-.4s0-.3.1-.8c0-.2-.1-.2-.2-.5.1-.4.1-.5.2-.6,0-.3.1-.6.1-.9s0-.2,0-.4v-.2c0,0,0-.1-.1-.3v-.8c.1,0,.2,0,.2,0v-1.1s0-.3,0-.3v-.5s-.2-.4-.2-.4v-1c0-.4,0-.6,0-.8l-.2-.2h-.2c0,0-.2.2-.3.3,0,0,0,0-.2,0v.2s-.2.3-.2.3l-.2.5c-.2.2-.3.2-.4.5,0,0-.1,0-.2.2h0c-.1.3-.2.4-.4.8,0,.2,0,.2-.2.2-.2.3-.3.3-.4.4,0,0,0,.1-.2.4,0,.1,0,.2-.3.2v.2c-.1.2-.2.3-.3.4v.3c-.2,0-.2,0-.3.1,0,.1,0,.2,0,.2l-.4.6c0,0,0,0,0,.2h-.2s-.2.2-.2.2c-.2.4-.2.4-.3.8h0c0,.2,0,.2-.1.2,0,0-.1,0-.2,0,0,.3,0,.3,0,.4h0c0,.3,0,.4,0,.5-.2,0-.3,0-.4,0s-.2,0-.4-.2c0-.2,0-.2-.1-.4v-.2l-.3-.4c0-.3-.1-.5-.2-.8-.1,0-.1,0-.2-.3h0c0,0,0-.7,0-.7-.2-.3-.3-.6-.5-.9v-.4c0-.1-.2-.3-.3-.4,0-.1,0-.2-.1-.3h-.1c0-.1-.2-.8-.2-.8,0-.2-.1-.3-.2-.4v-.5c-.2-.1-.3-.2-.4-.4h-.2c-.2.1-.2.2-.3.3v.6s-.1.4-.1.4v.5s0,.2,0,.2c0,0,0,.1,0,.2v.4s0,9.4,0,9.4v.7c-.1,0,0,.1,0,.1v.4s0,.1,0,.1v.3c0,0,0,.6,0,.6h0c0,0,0,.9,0,.9h0c0,0,0,.3,0,.3v.4c0,0,0,.1,0,.1,0,0-.2,0-.3.1h-.2s-.3-.2-.3-.2c0-.2,0-.3,0-.4s0-.2,0-.3c0-.1,0-.3,0-.3,0,0,0-.2,0-.3,0-.2,0-.3,0-.4v-.5c0-.4,0-.7,0-1.1v-.3c.1,0,0-.2,0-.2,0-.2,0-.2,0-.4v-9.3c0,0,0-.2,0-.4v-.4c0,0,0-.8,0-.8v-.2s0-.9,0-.9v-.2c0-.2,0-.3,0-.5v-.2c-.1-.4-.2-.5-.3-.8v-.4c.2-.5.2-.5.3-.5h.1s0,0,0,0h.6c.1,0,.1.1.4.1h.1c0,0,.2,0,.3,0h.7c0,.1.3.1.3.1l.5.5s0,0,0,.1c0,0,0,.1,0,.2,0,0,0,.1,0,.2v.4c.1,0,.1.2.1.2l.2.3c0,.4,0,.5.1.6l.4.4c0,.3,0,.5.3.6.1.3.1.3.3.5,0,.1,0,.2.1.3l.4.2h.3c.2-.3.3-.5.4-.8h0c.1-.3.2-.4.3-.6.1-.2.2-.2.4-.6h0c.3-.3.3-.4.3-.5.2-.3.2-.4.4-.8.2-.3.4-.7.5-1,.1-.1.2-.2.3-.4,0,0,.2-.2.3-.3h.4c0,0,1,.1,1,.1h.2s0,0,0,0h.7c.5.1.6.1.6.1l.3.2c0,0,0,.1,0,.6v.2c-.1,0-.1.1,0,.4,0,.1,0,.2.2.4v.3c0,0,0,.6,0,.6v.3c0,.4,0,.4.1.5h0c0,0-.2.3-.2.3,0,.4,0,.4.2,1.4v.2c0,0,0,0,0,.1,0,.3-.1.6-.1.9s0,.2,0,.4c0,.2,0,.4,0,.6s0,.4,0,.6c0,.2.1.3.1.3v.2c0,.1,0,.2,0,.4v.5c.1,0,.3,1.1.3,1.1,0,0,0,.4-.1.5Z"/>
      <path class="st6" d="M26.6,28.5c-.4.4-.4.4-.7.6l-.2.3h-.1c-.1.3-.2.3-.3.5-.2,0-.2,0-.3.2h-.1c0,0-.2,0-.3.1h-.2c0,0-.2,0-.2,0-.4.1-.6.2-.7.2-.2,0-.7,0-1.2,0-.1,0-.1,0-.1-.1h-.2s-.4-.3-.4-.3v-.2s-.2-.2-.2-.2h-.2c0,0-.2-.1-.3-.2h0c-.1-.2-.2-.3-.3-.4-.1,0-.2-.2-.3-.3v-.2c-.1,0-.1,0-.2-.1v-.4s0-.3,0-.3v-.7c0-.2-.1-.3-.1-.4h0c0-.3,0-.4,0-.7,0-.2,0-.5-.1-.6v-.5c0,0,0-.8,0-.8v-1c0,0,0-.5,0-.5v-.3c0,0,0-.4,0-.4-.2-.4-.2-1.6-.2-2.2s0-.3,0-.8c.1-.2.1-.2.2-.4h.1s.2,0,.2,0h.2s.5,0,.5,0l.2.2v.3c0,0,0,.1,0,.3h0c0,.4,0,1.9-.1,2.3,0,.2,0,.2,0,.4,0,.1.1.2.1.4s0,.4,0,.5h0c0,0,0,.2,0,.2v.3s0,.5,0,.5v.2s0,0,0,0c0,.3,0,.3,0,.4v1c0,0,0,0,0,0,0,.3,0,.4,0,.4,0,0,0,.2,0,.2s0,0,0,.1c0,0,0,0,0,.1,0,.1,0,0,0,.2,0,.1.1.2.2.4v.5c0,0,0,.6,0,.6h.2c0,.1.1.4.1.4h0c.2,0,.2.1.4.3,0,0,.1.1.3.2h1.1s0,0,.3,0h.8c0-.1.1-.2.2-.2,0,0,.2,0,.2,0,0-.1.2-.2.2-.3h0c.2-.3.2-.3.3-.4v-.6c0,0,0-.1,0-.1v-.8c0-.8,0-1.3,0-1.7,0-.1,0-.2-.2-.4v-.3c0,0,.2-1.3.2-1.3,0-.2,0-.4,0-.6s0-.4,0-.6c0,0,0,0,0-.2h0c0-.1,0-1.8,0-1.8v-.2s0-.6,0-.6c0,0,0-.1,0-.3v-.3c.1,0,0,0,0-.1,0,0,0-.1,0-.1,0,0,.2,0,.2-.1.2,0,.2,0,.3,0s.1,0,.2,0c0,0,.2,0,.3,0,0,0,0,0,.2.1,0,0,0,.1,0,.2h0c0,.2,0,.3,0,.3v.6s0,.5,0,.5c0,.2,0,1.4,0,2.1h0c0,.3,0,.3,0,.4,0,.2,0,0,0,.4,0,.2,0,.1,0,.4v.9c0,.2,0,.2,0,.3v.3c0,0,0,.9,0,.9,0,.3,0,.5,0,.8,0,.5,0,.9,0,1.2,0,.2,0,.3,0,.5,0,.2,0,.4,0,.6v.2ZM26.2,23.1h-.1c0,0,0,0-.2,0h0c0,.1.1.2.1.2v.2c0,0,.2,0,.2,0,0-.2,0-.2,0-.3Z"/>
      <path class="st6" d="M36.6,28.2l-.3.4c-.1,0-.2,0-.2.2l-.2.4h-.2c-.1,0-.2,0-.2,0-.2.3-.2.3-.4.5v.2c0,0-.2.1-.2.1-.1,0-.3,0-.4,0h-.6c0,.1-.8,0-.8,0,0,0,0,0-.2.1-.3,0-.4,0-.4,0-.2,0-.3,0-.5,0-.3,0-.5.1-.5.1s-.2,0-.4-.2l-.6-.4c-.3-.1-.9-.4-1.2-.6-.1,0-.2-.2-.3-.3,0-.2,0-.5,0-.6s0-.3,0-.5c0-.8,0-1.3-.2-1.9.2-.3.3-.3.3-.4h.4s.5.2.5.2l.7.2h.3c.1,0,.2.1.3.1h0c0,.1-.2.4-.2.4,0,.3,0,.3,0,.4,0,.3,0,.4,0,.6v.5c0,0,.6.2.6.2h.2c0,.1.5.3.5.3.2,0,.2,0,.4-.1h.6c0,0,.1,0,.1,0,.1,0,.2,0,.6,0h0s.4,0,.4,0h.2c0-.2.2-.3.2-.4v-.4c0,0,0-.6,0-.6v-.5c0,0,0,0,0,0,0-.2,0-.6-.1-.9,0,0,0-.1-.1-.2-.1,0-.2,0-.2-.2h0l-.7-.4c0,0-.2-.1-.3-.2h-.2c-.2,0-.4-.1-.6-.3-.2-.1-.3-.2-.5-.1h-.2c-.6-.3-.7-.3-.9-.5,0,0-.1-.2-.2-.2h-.1c-.3,0-.3,0-.3-.1h-.6c0-.1-.2-.3-.2-.3h-.2c0-.2,0-.3,0-.4,0,0,0-.1,0-.3,0-.7,0-.8,0-.9,0-.3,0-.3-.2-.5v-1.4c0,0,.2,0,.2,0h.6s.4,0,.4,0c.1,0,.1.1.4.2h.3c0,0,.3,0,.3,0,1.2,0,1.2,0,1.6,0h.2s.8,0,.8,0c0,0,.1,0,.1-.1h.2c0,0,.2,0,.2,0s.1,0,.3,0c0,0,.1,0,.2,0,.1,0,.2,0,.3,0h.2c0,.3,0,.5.1.7v.2c0,0,0,.2.1.3,0,.1,0,.1-.1.3-.3.4-.3.4-.4.5h-.8c0,0,0,0,0,0-.1,0-.1.1-.3.1-.9,0-.9,0-1.3,0-.3.2-.3.2-.4.5,0,0,0,.1,0,.3.1.2.2.2.3.2.3.2.3.2.3.3h0c0,0,.1.2.2.2,0,0,.2,0,.3,0s.2,0,.3,0h.2c.2.1.2.1.2.2h.3c.3.3.3.3.6.3l.2.2h.3c0,.2,0,.2.2.2l.3.2c.1,0,.2,0,.5.3v.4c.2,0,.2.1.2.2-.1.2-.1.3-.1.4v.3c0,.2,0,.2-.1.3,0,0,0,.2.1.2v.5c0,0,.1.1.2.2v.7c0,0,0,.2,0,.2-.4.4-.4.4-.4.5Z"/>
      <path class="st6" d="M40.9,31h0c-.4.2-.6.2-1.3.3,0,0-.1,0-.2,0,0,0,0,0-.1,0,0,0-.2,0-.2-.1,0,0,0-.2,0-.3s0-1.3,0-1.5c0,0,0-.2,0-.2,0,0,0,0,.3-.9v-.7c-.1,0-.1-.2-.1-.2,0-.2,0-.3,0-.4s0-.3,0-.4c0-.3,0-.4,0-.8,0-.2,0-.2,0-.3s0-.2,0-.3c0-.1,0-.3,0-.4s0-.2,0-.2c0,0,0-.1,0-.4h-.1c0-.1,0-.9,0-.9h0c0,0,0-.5,0-.5h0c0-.1,0-.7,0-.7,0,0,0-.2.1-.4v-.2c0,0-.1-.1-.1-.2,0,0,0-.3,0-.3s0,0,0-.1c0-.2,0-.5.1-.7h.4c0-.1.1,0,.1,0h.8s.2.2.2.2c0,0,.1,0,.2,0h.2c0,0,0,0,.2.2v.9s0,.4,0,.4h0c0,.2,0,.4-.1.5,0,0,0,.2,0,.3,0,.1,0,.2,0,.3,0,.4,0,.4-.1.4,0,.1,0,.2,0,.2,0,0,0,.1,0,.2s0,0,0,.2c0,.1.1.1.1.5,0,.2,0,.2-.2.3,0,.1,0,.2,0,.3,0,0,.1.2.2.3,0,0,0,.1,0,.1,0,.1,0,.2-.1.3,0,0,0,.1,0,.2,0,.4,0,.5,0,.8h0s0,.2,0,.2v.4c0,0,0,.4,0,.4,0,.2,0,.2,0,.2,0,.3,0,.6,0,.9v.4c.1.1.2,1.3.2,1.5,0,.1-.1.1-.3.2Z"/>
      <path class="st6" d="M21.4,57.6c0,.2,0,.4,0,.5s0,.3,0,.5h0c0,.3,0,.5,0,.7-.2.3-.3.4-.4.6h-.2c0,.2,0,.2-.3.5-.1,0-.2.2-.3.3-.2,0-.2.2-.2.3,0,0,0,.2-.1.2-.3.2-.3.2-.5.2-.2,0-.3,0-.4,0-.2,0-.6,0-.7,0-.7,0-1.4,0-2,0l-.6-.2h-.2c0-.3-.2-.5-.3-.6,0,0,0-.2-.2-.4-.2,0-.3-.2-.5-.5v-.9c0,0,0-1,0-1,.1-.1.1-.2.2-.7,0,0-.2-.4-.2-.8s0-.3,0-.5v-.7c0-.4,0-.6,0-1.6s0-.7-.2-1.1c0,0,0,0-.1-.4v-.3c.3,0,.3,0,.4-.2.2,0,.5-.3.6-.6,0,0,.1,0,.2-.2.2-.2.3-.3.3-.4,0,0,.1,0,.4-.2,0,0,.1,0,.2,0,.1,0,.3,0,.7.2h.4c.2,0,.7.1,1,.1h.7c.3.1.3.2.6.3,0,.1,0,0,.1.2.1.1.3.2.4.3h0c.1.2.4.4.5.5,0,.1,0,.2.2.3,0,.2,0,.2.3.3v.3c0,.5,0,.8,0,1.3v.2c.1,0,0,.6,0,.6h0c0,.3,0,.5-.2,1,0,.1,0,.2.3.4v.2c0,.2-.1.8-.2,1.2ZM19.2,52.2v-.9c0-.3,0-.6,0-.8v-.2c0,0-.5-.3-.5-.3h-.2c0,0-.6.2-.6.2-.1,0-.2,0-.5,0h-.4c-.1,0-.2,0-.5.3l-.2.3c0,0,0,.2.1.3v.4c0,0,0,.4,0,.4,0,.2,0,.2-.2.5,0,0,0,0,.1.2,0,0,0,0,0,.2s0,.2.1.3v.5c0,0,0,.3,0,.3,0,.3,0,.6.3.8,0,.2,0,.3,0,.6,0,.6-.1.7-.2.8,0,.2,0,.3-.1.4,0,.2,0,.3,0,.5.1,0,.2.2.3.3.2.1.4.1.6.1s.4,0,.7,0c.4,0,.6,0,.7-.3v-.4c0-.8,0-1.3,0-2,0-.2,0-.3,0-.6,0-.1,0-.3,0-.4,0-.2,0-.3,0-.4,0-.2.1-.3.1-.6v-.2Z"/>
      <path class="st6" d="M32.8,55.5c0,0-.1,0-.2.1-.1,0-.2,0-.3,0h-.2c0,0-.3-.4-.3-.4v-.9c0,0,0-.2,0-.3,0,0,0-.1,0-.2l-.2-.2h0c0,0-.1-.2-.1-.2,0-.3-.1-.3-.2-.4,0-.1-.1-.2-.2-.3,0,0,0-.1-.2-.2-.7,0-.8,0-.9,0-.2,0-.3,0-.5-.1-.2,0-.3,0-.6.2h-.1s0,0-.2,0c-.2,0-.5,0-1.2,0,0,0-.1,0-.4.3,0,0-.1,0-.1.1l-.3.3v.2s0,.2,0,.2c0,0,0,.1,0,.2s0,.1,0,.2c0,.1,0,.2,0,.3,0,.8,0,.8,0,1.4v.3s0,.1,0,.1v.2s0,.7,0,.7c0,.5,0,.8,0,1.2.2.2.2.3.2.3.4.3.5.4,1,1,.1,0,.2.2.4.2h.3c.2,0,.3,0,.5.2h.4c.1,0,.2-.1.4-.1,0,0,.1,0,.3,0h.2s.4,0,.4,0h.5c.1-.2.1-.2.2-.3,0,0,.1,0,.4-.3v-.4c0-.1,0-.2-.2-.3h-.2s-.3,0-.3,0c-.1,0-.6,0-.8,0h-.2c-.2.1-.3.1-.4.1,0,0-.1,0-.2,0s-.2,0-.2,0h-.2s-.3-.2-.3-.2v-.2c0-.3-.1-.7-.1-1.2v-.7c.2-.2.2-.3.4-.3.1,0,.3,0,.4,0,.1,0,.3,0,.4,0,0,0,.1,0,.3,0h1.5c0,.1.3.2.3.2h.5c0,0,.1.1.1.1,0,.1.1.2.2.5v.6s0,.2,0,.2v.2c0,.2,0,.2,0,.4v.9c0,0,0,.2,0,.2h-.2c0,.1,0,.1-.1.1,0,.1-.1.2-.2.3h0c-.2.4-.3.4-.7.6-.1.1-.2.1-.4.2h-.4c-.4,0-.6,0-.6,0s-.2,0-.4,0c0,0-.3,0-.4,0-.4,0-.5.1-1,.1-.1,0-.3,0-.4,0-.1,0-.2,0-.3-.2l-.4-.3v-.2c-.1,0-.2-.2-.2-.3h0c-.1-.3-.3-.5-.4-.6,0,0-.1,0-.2-.2-.1,0-.2-.1-.3-.3,0-.3,0-.5,0-.6s0-.2,0-.3v-.5s0-.2,0-.2v-.6s0-.4,0-.4v-.3c0-.2,0-.3,0-.5v-.5c0,0,0-.3,0-.3v-.8c0-.2,0-.3,0-1.1,0-.2.2-.3.3-.5.2-.1.3-.3.4-.5.2,0,.3-.2.4-.3.1,0,.3,0,.6,0h.3c.2,0,.4,0,.6,0h.9s.2-.1.2-.1h.2s.2-.1.2-.1c.6,0,.9,0,1.2,0l.8.6c.1.3.2.5.3.7h.2c0,.1,0,.2,0,.2,0,0,.1.1.2.3l.4.2c0,.2,0,.2,0,.4,0,.2,0,.3.1.3,0,.7,0,.8,0,1l-.2.3Z"/>
    </g>
    <path class="st3" d="M35.8,2.7h-.2c0,0,.2,0,.2,0h0Z"/>
    <g class="st15">
      <path class="st10" d="M8.8,56.5c-.1,0,0,1.3,0,1.2-.4-1.5-1.1-2.5-1.1-5-.8-.1-1.6,0-2.4.3v.6c0,.7,0,1.5,0,2.2,0,4.2,0,5.4.2,5.7.3,0,1.1.2,2.4.2.9,0,1.6,0,1.9,0,.4,0,1.9,0,2,0,0-.1.5-3,.5-3.2,0-.2-.6,0-1.5-.4l-2-1.7Z"/>
      <path class="st12" d="M5.3,51.9v.3s0,.8,0,.8c.8-.3,1.6-.4,2.4-.3h0c0-.3,0-.6,0-.9-.9-.1-1.7,0-2.4.2h0Z"/>
      <path class="st4" d="M7.8,50.8c-.4,0-.8,0-1.3,0-.4,0-.8,0-1.2.2v.9s0,0,0,0c.8-.2,1.6-.3,2.4-.2,0,0,0,0,0,0v-.9s0,0,0,0h0Z"/>
      <path class="st3" d="M7.8,49.4h0c-.7,0-1.5,0-2.4,0h0s0,1.5,0,1.5c.4,0,.8-.2,1.2-.2.4,0,.8,0,1.3,0h0c0,0,0-.2,0-.2h0v-1.2h0Z"/>
      <path class="st13" d="M5.4,49.4s0,0,0,0c.9,0,1.7,0,2.4,0h0c0-.2,0-.4,0-.6-.8,0-1.6,0-2.4-.2,0,0,0,0,0,0h0c0,.3,0,.5,0,.7h0Z"/>
      <path class="st11" d="M7.7,46.1c-.7,0-1.4-.1-2.3-.2,0,.7,0,1.6,0,2.7,0,0,0,0,0,0,.8,0,1.6.1,2.4.2h0c0-.9,0-2.2,0-3.2h0c0,.2,0,.3,0,.5h0Z"/>
      <path class="st14" d="M5.6,44.6c0,.1-.1.6-.1,1.4h0c.8,0,1.6.1,2.3.2,0-.2,0-.3,0-.5,0-.4,0-.7,0-.9h0c0,0,0,.1,0,.2-.7-.1-1.4-.2-2.1-.4,0,0,0,0,0,0h0Z"/>
      <path class="st5" d="M6.6,44.4c-.3,0-.6,0-.8,0,0,0,0,0,0,0,0,0,0,0-.1,0,0,0,0,0,0,0,0,0,0,0,0,0,0,0,0,0,0,0,.7.2,1.4.3,2.1.4,0,0,0-.2,0-.2,0-.1,0-.2,0-.2,0,0-.5-.1-1-.1h0Z"/>
    </g>
    <g class="st7">
      <path class="st10" d="M13.5,31.6c-.4,0-.8.1-1.2.2.4,0,.8-.1,1.2-.2,0,0,0,0,0,0h0Z"/>
      <path class="st10" d="M-14.5,66.1C-5.7,47.6,3.9,44.8,7.6,33.7c-1.4.3-2.8.6-4.1,1-4.8,1.7-11.4,5-14.2,7.6-2.8,2.7-6.5,7.7-8.1,10.8-1.8,3.4-6,6.4-9.3,6.5-2.7,0-5.6.5-6.1,1-.3.4-.6,2.3-.6,5.3,0,3.1.4,4.3.6,4.7,1.8.4,8.6.6,11.6.7,1.4,0,1.5,0,2.8,0,2.3,0,3.7,0,4.7-.1,0,0,0,0,0,0-.6,0-1.3,0-2.2,0,.7-1.1,2.1-4.3,2.9-5.3h0Z"/>
      <path class="st12" d="M11.1,32s0,0,0,0c.4,0,.8-.1,1.3-.2-.4,0-.8,0-1.3.2h0Z"/>
      <path class="st12" d="M9.8,33.3c-.4,0-.7,0-1.1.1-.4,0-.8.1-1.2.2-3.6,11.1-13.3,13.9-22.1,32.4-.8,1-2.3,4.1-2.9,5.3.9,0,1.6,0,2.2,0,1.5,0,2-.2,2.2-.2.4-.6,1.8-2.7,2.4-5.4,0,0,0-.2,0-.3.8-3.1,4.6-8.2,7.3-11.8,1.3-1.8,2.7-2.7,3.9-2.7s.2,0,.4,0c.4,0,1.1.3,1.6,1.1,5-7,8-13.1,9.6-18.7.8,0-.9,0-2.5.2h0Z"/>
      <path class="st4" d="M16.7,33c-.2,0-1.1,0-1.9,0-.8,0-1.6,0-2.4.1-1.6,5.6-4.6,11.8-9.6,18.7,0,0,0,0,0,.1.1.2.2.3.3.5,0,0,0,.2.1.2,0,.2.2.4.2.6,0,0,0,.2,0,.3,0,.3.2.7.2,1.1,0,0,0,0,0,0,5.5-7.3,10.6-14.2,13-21.9h0Z"/>
      <path class="st3" d="M28.9,31.8h0s0,0,0,0c0,0,0,0,0,0h0Z"/>
      <path class="st13" d="M24.1,33.5s0,0,0,0c-.5,4.8-1.6,9.2-3.7,14,0,0,.2,0,.2-.1,0,0,.1,0,.1,0,1.6-.7,3.5-1.6,4.4-2.1,0,0,.1,0,.2,0,1-3.8,1.5-7.5,1.8-11.3-1.5-.2-2.5-.2-3-.3h0Z"/>
      <path class="st11" d="M34.3,35.2c-1.4-.5-4.6-1.1-7-1.4,0,0-.2,0-.2,0,0,0-.8,7.6-1.8,11.3,0,0,0,0,0,0,0,0,0,0,0,0,.2,0,.3,0,.5,0,1.5,0,3.8.9,5.5,1.9,2,1.1,4.6,2.6,6,3.9,1.1-3.5,1.9-7.4,2.4-12.1-1.6-1.4-3.5-2.7-5.6-3.5h0Z"/>
      <path class="st3" d="M19.8,33.1s0,0,0,0c-.2,0-.5,0-.7,0h0c-.2,0-.4,0-.5,0,0,0,0,0-.1,0,0,0,0,0,0,0-.2,0-.2,0-.4,0-.4,0-.8,0-1.3,0-2.4,7.7-7.5,14.6-13,21.9h0c.5,4.1,1.6,9.4,2.5,11.6.2.4.4.9.6,1.4,2.9-3.7,5.4-7,7.5-10,0-.3,0-.5,0-.7,0-.4,0-.9,0-1.2,0-1.8.9-4.1,1.8-5.3.2-.3.5-.6.8-.9.3-.3.7-.6,1-.8.8-.6,1.7-1.1,2.4-1.5,2.1-4.8,3.2-9.2,3.7-14-.8-.1-2.2-.3-4.3-.4h0Z"/>
    </g>
    <g class="st9">
      <path class="st11" d="M28.7,16.8c-1.5-1.3-4.8-2.6-7.3-3.4,0,0-.2,0-.2,0,0,0-.9,18.6-1.9,27.8,0,0,0,0,0,0,0,0,0,0,0,0,.2,0,.3-.2.5-.2,1.6,0,4,2.3,5.8,4.6,2,2.7,4.8,6.5,6.3,9.5,1.2-8.5,1.9-18.1,2.5-29.8-1.7-3.6-3.7-6.7-5.8-8.5h0Z"/>
      <path class="st14" d="M36.3,33.5c-.9-2.3-2.2-4.9-3.7-7.3h0c-.6,9.2-1.4,16.7-2.5,23.4.2.4.4.7.6,1.1.2.3.3.7.4,1,0,.1,0,.3.1.5.6,2.3,1.2,5.7,1.4,7.8.1,1.3,0,3.5-.2,5.8,2.2-10,3.5-20.3,4.5-30.7.2.5.4,1,.6,1.6-.4-1.2-.9-2.3-1.2-3.2h0Z"/>
      <path class="st5" d="M41.3,45.7c-.5-4.4-2.8-10.9-4.7-15.9-.2-.5-.4-1.1-.6-1.6-1,10.3-2.3,20.7-4.5,30.7-.2,1.8-.4,3.8-.7,5.5-.6,3.5-2,8.4-3.1,10.5-.1.3-.3.5-.5.8,0,0-.1.1-.2.2-.2.2-.3.4-.5.5-2.5,6.8-5.5,13.2-9.4,19.1-.8,1.4-1.4,2.9-2.1,4.5,0,0,0,0,0,0,0,0,0,0,0,0,1.4.2,3,.4,4.2.4,1.9,0,3.6-.3,4.8-.9.8-.4,1.4-.8,2-1.3,1.2-3,2.5-6,4-8.7,5.7-13.4,9.3-26.9,11.6-39.7.2,2.9.3,5.8.4,8.1,0-3.3-.3-8.1-.7-12.2h0Z"/>
      <path class="st0" d="M44.2,31.5c-2.2,6.8-5.7,13.9-11.3,21-1.5,1.4-2.8,3-3.9,4.6,0,0,0,0,0,0,.4-.2.7-.4,1-.5,0,0,0,0,.1,0,.7-.4,1.1-.8,1.5-1,.1-.1.3-.2.4-.3,0,0,.2,0,.3-.1,1-.5,3.7-2.1,5.3-3.9,2-2.2,4-4.7,4.8-6.7.8-1.8,1.5-4.3,1.9-6,0,0,0,0,0-.1,0-.3.1-.6.2-.8,0-.2,0-.6,0-.9,0,0,0-.1,0-.2,0-1.2-.1-3-.4-4.8h0Z"/>
    </g>
    <g class="st8">
      <path class="st10" d="M43.2,32.6c0,.2.2.5.2.7,0-.2-.1-.5-.2-.7,0,0,0,0,0,0h0Z"/>
      <path class="st10" d="M68.4,46.3c-13.8-4.3-16.7-10.7-24.8-12.2.3,1,.7,1.9,1.1,2.8,1.7,3.2,4.6,7.5,6.7,9.1,2.1,1.7,6,3.8,8.4,4.6,2.6.9,5.1,3.6,5.5,5.8.3,1.9.9,3.8,1.3,4.2.3.1,1.7.2,3.8-.1,2.1-.4,2.9-.7,3.2-.9,0-1.3-.4-6.1-.7-8.1-.1-1-.1-1.1-.2-2-.2-1.6-.4-2.6-.5-3.3,0,0,0,0,0,0,0,.4.2.9.3,1.5-.8-.3-3.2-1.1-4-1.5h0Z"/>
      <path class="st12" d="M43.6,34.2s0,0,0,0c0-.3-.2-.5-.3-.8,0,.3.1.5.2.8h0Z"/>
      <path class="st12" d="M43.2,32.6c0,.2.1.5.2.7,0,.3.2.5.3.8,8.1,1.4,11,7.9,24.8,12.2.8.5,3.1,1.2,4,1.5-.1-.6-.2-1.1-.3-1.5-.2-1-.3-1.4-.4-1.5-.4-.2-2.1-1-4-1.1,0,0-.2,0-.2,0-2.2-.3-6.1-2.4-9-3.9-1.4-.7-2.2-1.6-2.3-2.5s0-.1,0-.3c0-.3.1-.8.6-1.2-5.4-2.8-10-4.3-14-4.8-.1-.6.1.6.4,1.7h0Z"/>
      <path class="st4" d="M42.2,27.8c0,.1,0,.8.2,1.4,0,.5.2,1.1.3,1.7,4.1.5,8.7,2.1,14,4.8,0,0,0,0,0,0,0,0,.2-.2.3-.3,0,0,.1,0,.2,0,.1,0,.3-.1.4-.2,0,0,.1,0,.2,0,.2,0,.5-.2.8-.3,0,0,0,0,0,0-5.6-3.1-11-6-16.6-6.9h0Z"/>
      <path class="st3" d="M41.8,22.7h0s0,0,0,0c0,0,0,0,0,0h0Z"/>
      <path class="st13" d="M41.8,22.6s0,0,0,0c3.4-.1,6.6.2,10.1,1.2,0,0,0-.1-.1-.2,0,0,0,0,0,0-.6-1-1.5-2.3-1.9-2.9,0,0,0,0,0-.1-2.7-.3-5.4-.3-8.1-.1,0,1.1,0,1.8,0,2.1h0Z"/>
      <path class="st11" d="M42,15.3c-.2,1-.3,3.3-.3,5,0,0,0,.1,0,.2,0,0,5.3-.2,8.1.1,0,0,0,0,0,0,0,0,0,0,0,0,0-.1,0-.2-.1-.3-.1-1,.3-2.8.8-4,.6-1.5,1.4-3.5,2.1-4.6-2.5-.4-5.3-.6-8.7-.5-.8,1.3-1.6,2.7-1.9,4.2h0Z"/>
      <path class="st3" d="M42,25.7s0,0,0,0c0,.2,0,.3,0,.5h0c0,.1,0,.3,0,.4,0,0,0,0,0,0,0,0,0,0,0,0,0,.2,0,.1,0,.3,0,.3,0,.6.1.9,5.6.9,10.9,3.8,16.6,6.9h0c2.8-.7,6.4-2.1,7.9-2.9.3-.2.6-.4.9-.6-2.9-1.7-5.4-3.1-7.7-4.2-.2,0-.3,0-.5.1-.3,0-.6.1-.9.2-1.2.1-2.9-.2-3.9-.7-.2-.1-.5-.3-.7-.5-.2-.2-.5-.4-.7-.6-.5-.5-1-1.1-1.3-1.5-3.5-1-6.7-1.3-10.1-1.2,0,.6,0,1.6.2,3h0Z"/>
    </g>
  </g>
  <g>
    <path class="st6" d="M49.8,59.9c0,0,.1.1.2.2,0,.1,0,.2,0,.3h0c0,.1,0,.2,0,.2h0c0,.1,0,.3,0,.3h-.2c0,0,0,0-.1.1h-.1c-.2,0-.2,0-.3,0,0,0,0,0-.1,0h-.1c0,0-.1-.1-.1-.1h0c0,0,0-.1,0-.2,0-.1,0-.2,0-.2v-.2c0,0,.1-.1.2-.2.1-.1.2-.2.2-.2h.1s.3,0,.3,0c0,0,0,0,.3,0Z"/>
    <path class="st6" d="M47.8,53.6c.1,0,.2,0,.3,0s.2,0,.3,0h0c0,0,.2,0,.3,0,.2,0,.2.1.3.2h0c0,.1,0,.1.2.3,0,0,0,.1.2.2,0,0,.1.1.2.1,0,0,0,0,.1,0,0,.1,0,.2.1.3,0,0,0,.2,0,.2,0,0,0,.3,0,.4,0,.4,0,.7,0,1.1v.3c-.1,0-.2.1-.2.1-.1,0-.2.1-.3.2,0,0,0,0-.2.1,0,0-.1.2-.3.2h-.5s-.5,0-.5,0c0,0-.1,0-.4,0,0,0-.2,0-.4,0s-.2,0-.2,0h-.4c-.2,0-.3,0-.9,0s-.4,0-.6.1c0,0,0,0-.2,0h-.2c0-.1,0-.2-.1-.2,0,0-.2-.3-.3-.3,0,0,0,0,0-.1-.1,0-.2-.1-.2-.2,0,0,0,0,0-.2,0,0,0,0,0,0,0,0,0-.2,0-.4v-.2c0,0,0-.4,0-.5v-.4c0-.1,0-.2.2-.3,0,0,0,0,.1,0,0,0,.1-.2.1-.2h0c0,0,.1-.2.2-.3,0,0,.1,0,.1-.1.1,0,.1,0,.2-.1h.2c.2,0,.4,0,.7,0h.1c0,0,.3,0,.3,0h0c.1,0,.2,0,.5,0,0,0,.1,0,.2-.2h.1c.1,0,.4,0,.6,0ZM46.1,54.8h-.5c-.1,0-.3,0-.4,0h-.1s-.1.3-.1.3h0c0,0,0,.4,0,.4,0,0,0,0,0,.2v.2c0,0,0,.1.1.3h.1c0,.1,0,0,.1,0h.2s.2,0,.2,0c0,0,.1,0,.2.1,0,0,0,0,.1,0,0,0,0,0,0,0s.1,0,.2,0h.3s.2,0,.2,0c.2,0,.3,0,.4-.2.1,0,.1,0,.3,0,.3,0,.4,0,.4.1.1,0,.1,0,.2,0,0,0,.1,0,.3,0,0,0,0-.1.1-.2,0-.1,0-.2,0-.3s0-.2,0-.4c0-.2,0-.3-.2-.4h-.2c-.4,0-.7,0-1.1,0-.1,0-.2,0-.3,0,0,0-.1,0-.2,0,0,0-.2,0-.2,0-.1,0-.2,0-.3,0h-.1Z"/>
    <path class="st6" d="M49.7,47.4h0c0,.1,0,.1,0,.2v.2s0,0,0,0c0,0,0,0,0,0,0,0-.1,0-.2,0,0,0-.1,0-.2,0-.3,0-.3,0-.3.1h-.1c0,0-.1,0-.3.1-.1,0-.1,0-.3,0-.2,0-.3.1-.5.2,0,0,0,0-.1.1v.2h0s0,.3,0,.3h0c0,.1,0,.2,0,.2s0,0,0,0v.2s0,0,0,0c0,0,.1.1.3.2,0,0,0,0,.1,0h0s.2,0,.2,0h.2s0,0,0,0h.1s0,0,0,0c.1,0,.2,0,.3,0,.1,0,.2,0,.4,0h.1c0,0,0,.1,0,.1h0c0,0,0,.1,0,.1h0c0,.1,0,.2,0,.2h0c0,0,0,.2,0,.2,0,0,0,0,0,.2h0c0,.1,0,.1-.2.1s0,0-.1,0c0,0,0,0-.2,0-.2,0-.2,0-.4,0h-.3s0,0,0,0c-.2,0-.3,0-.4,0h-.1s-.1,0-.1,0c-.1,0-.1,0-.2,0-.2,0-.3,0-.4,0h-.3s0,0,0,0c0,0-.1,0-.2,0s-.1,0-.2,0h-.2c0,0-.3,0-.3,0s-.2,0-.3,0c0,0-.1,0-.2,0-.1,0-.1,0-.2,0,0,0-.1,0-.3,0,0,0,0,0-.1,0h-.1s-.2,0-.2,0c0,0-.1,0-.1,0-.1,0-.2,0-.3,0,0,0,0,0,0-.1v-.2s0-.1,0-.1c0-.1,0-.2,0-.3s0-.1,0-.2h0c0-.3,0-.4,0-.5h0s0-.3,0-.3h0s0-.2,0-.2h0s0-.3,0-.3c0,0,0-.2,0-.2,0,0,0-.1.1-.2,0,0,0,0,.2-.1h0c.2-.3.2-.3.2-.3,0,0,0,0,0-.1h.3s0-.1,0-.1h0s0,0,0,0h.3c0,0,.1,0,.2,0,0,0,0,0,.1,0h.2s.1,0,.1,0h0c.1,0,.3,0,.4,0,0,0,0,0,.1,0,0,0,.2,0,.2.1,0,0,0,0,0,.1,0,0,.1,0,.2.1,0,0,0,0,0,0h0c0,.2.1.2.2.2h.3s0,0,0,0h.1c0-.1.3-.2.3-.3,0,0,0,0,0,0h.1s.1,0,.1,0c0,0,0,0,0,0,0,0,.1-.1.2-.2h0c0,0,0,0,.2,0h.1c0,0,0,0,0,0,.2-.1.2-.2.2-.2h.1ZM45.7,48.6l-.2.2h0c0,.1,0,.2,0,.2,0,0,0,0,0,.1,0,0,0,.2,0,.3,0,0,0,0,0,.2v.2c.2,0,.2,0,.3,0h.1c.1,0,.1,0,.2,0,0,0,0,0,.1,0h.2c0-.1,0-.4,0-.6,0,0,0,0,0-.1,0-.2,0-.2,0-.4,0,0,0,0-.1,0h-.2c-.1,0-.2,0-.3,0s-.2,0-.3,0Z"/>
    <path class="st6" d="M46.7,40.9s0,0,0,.1c0,0,0,0,0,.1h0c0,.1-.2.3-.2.3h-.5s0,0-.1,0c0,0,0,0,0,0h-.1c0,0,0,0,0,0h0c-.1.1-.2.1-.2.2,0,0-.1,0-.2.1,0,0,0,0-.1.1,0,.4,0,.4,0,.5,0,.1,0,.2,0,.3,0,0,0,.2,0,.3h0c0,0,0,.1,0,.2,0,0,0,.3,0,.6,0,0,0,0,.2.2,0,0,0,0,0,0h.1c0,.1.1.1.1.1h0s0,0,.1,0,0,0,.1,0c0,0,.1,0,.2,0,.4,0,.4,0,.7,0h.2s0,0,0,0h.1s.4,0,.4,0c.3,0,.4,0,.7,0,.1,0,.1,0,.2,0,.2-.2.2-.2.5-.5,0,0,0-.1.1-.2v-.2c0-.1,0-.2.1-.2v-.2c0,0,0-.1,0-.2,0,0,0,0,0-.1h0c0-.1,0-.3,0-.3v-.3c0,0,0,0-.2-.1,0,0,0,0-.2-.2h-.2c0,0,0,0-.2.1h0c0,0,0,.3,0,.3,0,0,0,.3,0,.4h0c0,.2,0,.3,0,.3,0,0,0,0,0,0s0,0,0,.1h0c0,.1-.1.2-.1.2h0c-.2,0-.4,0-.6,0h-.4c-.1,0-.1-.1-.2-.2,0,0,0-.1,0-.2,0,0,0-.1,0-.2,0,0,0,0,0-.1v-.8c0,0,.1-.1.1-.1v-.2s0,0,0,0c0,0,.1,0,.3,0h.3s0,0,0,0h.1c0,0,.1,0,.2,0h.5s.1,0,.1,0h0c0,.1,0,.1,0,.2,0,0,.1,0,.2.1h0c.2.2.2.2.3.4,0,0,0,0,0,.2v.2c0,.2,0,.3,0,.3s0,.1,0,.2c0,0,0,.2,0,.2,0,.2,0,.3,0,.5,0,0,0,.1,0,.2,0,0,0,.1-.1.2v.2c-.1,0-.3,0-.3,0,0,0,0,0-.1,0h0c0,0-.2.2-.3.2,0,0,0,0-.1.1,0,0,0,0-.1.2-.2,0-.2,0-.3,0s0,0-.2,0h-.3s0,0,0,0h-.3s-.2,0-.2,0h-.1c-.1,0-.2,0-.3,0h-.3s-.1,0-.1,0h-.4c-.1,0-.1,0-.6,0,0,0-.2,0-.3-.2,0,0-.2-.2-.3-.2,0,0,0-.1-.2-.2,0,0,0-.1,0-.3h0c0-.3,0-.3,0-.5v-.5s0,0,0,0h0c0-.1,0-.2,0-.2,0-.3,0-.5,0-.6l.3-.4c.1,0,.2-.1.4-.2h0c0,0,0-.1,0-.1,0,0,0,0,.2,0v-.2c.2,0,.2,0,.3,0,0,0,.1,0,.2,0,.4,0,.4,0,.5,0h.2Z"/>
  </g>
  <path class="st6" d="M42,51.8c-.1.1-.2.3-.2.3-.2.2-.3.3-.3.5,0,.3-.2.5-.4.6-.3.6-.4.7-.5.8,0,0-.2.2-.2.2,0,0,0,0,0,.1,0,0,0,0,0,.1,0,0,0,0,0,0,0,0,0,0,0,0-.1.3-.1.3-.1.4-.1.2-.2.3-.2.4,0,.2,0,.4,0,.6,0,.2,0,.3.1.5s0,.2,0,.3,0,.2,0,.3c0,.2,0,.3,0,.6v.3c0,.1,0,.2,0,.3v.2c-.1,0-.1.3-.1.4v.2c0,.7,0,.8,0,1.3l-.2.2c-.3,0-.4.1-.4.1l-.4-.2c0,0-.1.1-.3.2h-.2c0,0-.2,0-.2,0h-.2c0,0-.2,0-.3,0,0,0,0-.2,0-.4v-.2s0-.2,0-.2l.2-.6c0-.1,0-.3,0-.4v-.2s0-.1,0-.1c0,0,0-.2,0-.2v-1.8c0,0,0-.6,0-.6,0-.3,0-.6-.1-.9,0,0,0,0,0-.2h-.1c0-.3,0-.4-.1-.6v-.3c-.2-.1-.2-.2-.2-.3,0,0,0,0-.1-.1,0,0,0-.1,0-.2,0,0,0-.1,0-.2-.1,0-.2-.2-.2-.4-.1-.2-.1-.2-.1-.2h0s0-.2,0-.2h0c0-.1,0-.2,0-.3,0,0-.1,0-.2-.2,0,0,0-.1,0-.2h0c0-.1-.1-.3-.2-.7,0,0,0-.1,0-.2l.2-.3h.2c0,0,.2.2.3.2,0,.1.2.2.2.3h0c0,.4.2.6.3.8h0c0,0,0,.4,0,.4l.2.2c0,0,0,0,.2.2h0c0,.1.1.2.2.2v.3c0,0,0,0,0,.1,0,0,0,.2,0,.2h.2c0,0,.1.5.1.5.2.2.3.3.3.5,0,.1.1.3.3.4,0,0,0,.1.1.1.1,0,.2-.1.4-.3,0-.3.1-.3.2-.3v-.4c.3-.2.4-.3.5-.6h0c0-.2.1-.4.2-.4,0,0,0-.1,0-.2,0-.1.2-.2.2-.4,0,0,0,0,0-.1.1-.1.2-.2.3-.4l.3-.2c0-.2,0-.3.1-.5,0-.3,0-.3,0-.5,0,0,.2,0,.3,0h.2s.2,0,.2,0c.1,0,.3,0,.4.1h0c0,0,0,.4,0,.4Z"/>
</svg>